<?xml version="1.0" standalone="no"?><!DOCTYPE svg PUBLIC "-//W3C//DTD SVG 1.1//EN" "http://www.w3.org/Graphics/SVG/1.1/DTD/svg11.dtd"><svg t="1585497076208" class="icon" viewBox="0 0 1024 1024" version="1.1" xmlns="http://www.w3.org/2000/svg" p-id="5738" xmlns:xlink="http://www.w3.org/1999/xlink" width="100" height="100"><defs><style type="text/css"></style></defs><path d="M496.246 768c-66.954 27.57-137.846 51.2-224.492 27.57-78.77-19.693-137.846-70.893-129.97-169.355C149.663 527.754 256 496.246 338.709 496.246s244.184 55.139 244.184 55.139 11.816-27.57 23.631-63.016 15.754-63.015 15.754-63.015h-334.77v-31.508h165.416v-66.954h-204.8V283.57h204.8v-90.584H563.2v98.461h224.492v43.323H563.2v59.077h181.17s-3.94 35.446-23.632 98.462c-23.63 63.015-47.261 90.584-47.261 90.584l275.692 90.585V248.123c0-98.461-78.769-177.23-177.23-177.23H256c-98.462 0-177.23 78.769-177.23 177.23v523.815C78.77 870.4 157.537 949.17 256 949.17h523.815c78.77 0 145.723-55.138 169.354-129.969L630.154 665.6c-3.939 0-66.954 70.892-133.908 102.4z" fill="#0096D7" p-id="5739"></path><path d="M307.2 555.323c-102.4 7.877-126.03 51.2-126.03 90.585s23.63 98.461 141.784 98.461 224.492-122.092 224.492-122.092-141.784-70.892-240.246-66.954z" fill="#0096D7" p-id="5740"></path></svg>